<svg width="41" height="41" viewBox="0 0 41 41" fill="none" xmlns="http://www.w3.org/2000/svg">
<path d="M11.9583 12.1838V8.02878C11.9583 5.88289 11.9583 4.80994 12.6478 4.21186C13.3374 3.61378 14.3996 3.76551 16.5239 4.06899L30.7234 6.09749C33.1796 6.44837 34.4076 6.6238 35.1413 7.4697C35.8749 8.31559 35.8749 9.55612 35.8749 12.0372V28.963C35.8749 31.444 35.8749 32.6846 35.1413 33.5305C34.4076 34.3764 33.1796 34.5518 30.7234 34.9027L16.5239 36.9312C14.3996 37.2347 13.3374 37.3864 12.6478 36.7883C11.9583 36.1902 11.9583 35.1173 11.9583 32.9714V29.1544" stroke="white" stroke-width="5"/>
<path d="M27.3333 20.4999L28.895 19.2505L29.8945 20.4999L28.895 21.7493L27.3333 20.4999ZM6.83325 22.4999C5.72868 22.4999 4.83325 21.6045 4.83325 20.4999C4.83325 19.3953 5.72868 18.4999 6.83325 18.4999V22.4999ZM22.0617 10.7089L28.895 19.2505L25.7715 21.7493L18.9382 13.2076L22.0617 10.7089ZM28.895 21.7493L22.0617 30.291L18.9382 27.7922L25.7715 19.2505L28.895 21.7493ZM27.3333 22.4999H6.83325V18.4999H27.3333V22.4999Z" fill="white"/>
</svg>
