<!DOCTYPE svg PUBLIC "-//W3C//DTD SVG 1.1//EN" "http://www.w3.org/Graphics/SVG/1.1/DTD/svg11.dtd">
<!-- Uploaded to: SVG Repo, www.svgrepo.com, Transformed by: SVG Repo Mixer Tools -->
<svg fill="#000000" width="800px" height="800px" viewBox="0 0 24 24" id="user-alert-left" data-name="Flat Line" xmlns="http://www.w3.org/2000/svg" class="icon flat-line">
<g id="SVGRepo_bgCarrier" stroke-width="0"/>
<g id="SVGRepo_tracerCarrier" stroke-linecap="round" stroke-linejoin="round"/>
<g id="SVGRepo_iconCarrier">
<path id="secondary" d="M20,20a1,1,0,0,1-1,1H5a1,1,0,0,1-1-1,7,7,0,0,1,3.06-5.77l.08-.05a1,1,0,0,0,.2-1.4A5.93,5.93,0,0,1,6,9a6,6,0,0,1,5-5.93,6,6,0,0,1,2,0A6,6,0,0,1,18,9a5.93,5.93,0,0,1-1.34,3.77,1,1,0,0,0,.2,1.4l.08.05A7,7,0,0,1,20,20Z" style="fill: #ff0000; stroke-width: 2;"/>
<line id="primary-upstroke" x1="6.95" y1="20.5" x2="7.05" y2="20.5" style="fill: none; stroke: #000000; stroke-linecap: round; stroke-linejoin: round; stroke-width: 2.5;"/>
<path id="primary" d="M6,9a5.33,5.33,0,0,1,.08-1A6,6,0,0,1,18,9a5.93,5.93,0,0,1-1.34,3.77,1,1,0,0,0,.2,1.4l.08.05A7,7,0,0,1,20,20a1,1,0,0,1-1,1H12" style="fill: none; stroke: #000000; stroke-linecap: round; stroke-linejoin: round; stroke-width: 2;"/>
<line id="primary-2" data-name="primary" x1="7" y1="13" x2="7" y2="16" style="fill: none; stroke: #000000; stroke-linecap: round; stroke-linejoin: round; stroke-width: 2;"/>
</g>
</svg>